Coordinates
version=1
nRows=17
nColumns=40
inDegrees=yes

Units are S.I. units (second, meters, Newtons, ...)
If the header above contains a line with 'inDegrees', this indicates whether rotational values are in degrees (yes) or radians (no).

endheader
time	pelvis_tilt	pelvis_list	pelvis_rotation	pelvis_tx	pelvis_ty	pelvis_tz	hip_flexion_r	hip_adduction_r	hip_rotation_r	knee_angle_r	knee_angle_r_beta	ankle_angle_r	subtalar_angle_r	mtp_angle_r	hip_flexion_l	hip_adduction_l	hip_rotation_l	knee_angle_l	knee_angle_l_beta	ankle_angle_l	subtalar_angle_l	mtp_angle_l	lumbar_extension	lumbar_bending	lumbar_rotation	arm_flex_r	arm_add_r	arm_rot_r	elbow_flex_r	pro_sup_r	wrist_flex_r	wrist_dev_r	arm_flex_l	arm_add_l	arm_rot_l	elbow_flex_l	pro_sup_l	wrist_flex_l	wrist_dev_l
      3.60000000	    -25.97228658	      5.16896586	      6.47302862	     -0.33743957	      0.82521624	     -0.98362266	     31.73324463	    -10.05826224	     -4.81788209	     88.94617910	      1.55240368	     -3.82294573	      0.00000000	      0.00000000	     69.58846252	      7.97203276	     -5.66034573	     75.08434523	      1.31046904	     23.70206605	      0.00000000	      0.00000000	      3.70911714	    -11.15459436	     -8.76519244	     89.95389171	     -2.16896572	     30.05755399	     54.28920894	     80.42607981	      0.00000000	      0.00000000	     89.96604346	    -16.37716023	     31.61071284	     62.14822485	     74.58409151	      0.00000000	      0.00000000
      3.60500000	    -25.94803779	      5.21831637	      6.36743774	     -0.33744444	      0.82506780	     -0.98352997	     31.75568202	     -9.95298885	     -4.67654856	     88.96231549	      1.55268532	     -3.96437311	      0.00000000	      0.00000000	     69.56392002	      7.89730674	     -5.74542836	     75.08066262	      1.31040477	     23.75377497	      0.00000000	      0.00000000	      3.68005493	    -11.15459046	     -8.72145176	     89.95403114	     -2.13688990	     29.95315973	     54.23920273	     84.81902114	      0.00000000	      0.00000000	     89.96589939	    -16.46364552	     31.37133275	     62.16861021	     79.34537853	      0.00000000	      0.00000000
      3.61000000	    -25.88591107	      5.27759731	      6.31978853	     -0.33734680	      0.82486721	     -0.98351165	     31.70737254	     -9.91393996	     -4.65486365	     89.00953402	      1.55350943	     -3.96152971	      0.00000000	      0.00000000	     69.52027463	      7.91170509	     -5.77773169	     75.13832372	      1.31141114	     23.78721302	      0.00000000	      0.00000000	      3.60514551	    -11.17775768	     -8.67306056	     89.95397949	     -2.17523797	     29.92940032	     54.29413234	     84.52653789	      0.00000000	      0.00000000	     89.96593360	    -16.46036869	     31.32182119	     62.17557386	     80.81123296	      0.00000000	      0.00000000
      3.61500000	    -25.90760691	      5.26968079	      6.27420174	     -0.33738670	      0.82441877	     -0.98350597	     31.77991424	     -9.79613313	     -4.64748928	     89.15674469	      1.55607875	     -3.71685865	      0.00000000	      0.00000000	     69.60176321	      7.88213623	     -5.75745319	     75.24275040	      1.31323373	     23.88851304	      0.00000000	      0.00000000	      3.64605784	    -11.12038464	     -8.63347541	     89.95417770	     -2.20412637	     30.26159275	     54.40723747	     80.26233706	      0.00000000	      0.00000000	     89.96588799	    -16.48591254	     31.45223591	     62.28663470	     76.95007295	      0.00000000	      0.00000000
      3.62000000	    -25.90472089	      5.22035074	      6.29224117	     -0.33733765	      0.82416432	     -0.98352815	     31.72740524	     -9.68493900	     -4.70196539	     89.10983071	      1.55525994	     -3.66850707	      0.00000000	      0.00000000	     69.63727574	      7.88915687	     -5.67476901	     75.30254733	      1.31427739	     23.76078511	      0.00000000	      0.00000000	      3.65098243	    -11.06351942	     -8.59823633	     89.95399439	     -2.28689557	     30.37268802	     54.44150536	     76.02249627	      0.00000000	      0.00000000	     89.96597122	    -16.35754764	     31.66486681	     62.23714647	     73.02633720	      0.00000000	      0.00000000
      3.62500000	    -25.89313976	      5.26313332	      6.23534380	     -0.33737670	      0.82380648	     -0.98347083	     31.74797803	     -9.64627062	     -4.67563679	     89.19341497	      1.55671876	     -3.67597359	      0.00000000	      0.00000000	     69.67097433	      7.88014075	     -5.68042492	     75.38442960	      1.31570650	     23.81412493	      0.00000000	      0.00000000	      3.64092265	    -11.07539278	     -8.57893650	     89.95412059	     -2.29422650	     30.59503098	     54.51019982	     73.33221313	      0.00000000	      0.00000000	     89.96601346	    -16.40062309	     31.74113103	     62.34336267	     70.42032333	      0.00000000	      0.00000000
      3.63000000	    -26.00517849	      5.21937729	      6.06449051	     -0.33745772	      0.82315449	     -0.98328919	     31.96362627	     -9.45496667	     -4.57352689	     89.30581211	      1.55868046	     -3.77916798	      0.00000000	      0.00000000	     69.85219461	      7.68496022	     -5.73521108	     75.52606436	      1.31817849	     23.95259624	      0.00000000	      0.00000000	      3.79998368	    -10.98083253	     -8.44007525	     89.95431771	     -2.25113881	     29.99169540	     54.40395775	     84.76408794	      0.00000000	      0.00000000	     89.96581932	    -16.45566535	     31.34468827	     62.24297374	     78.31844798	      0.00000000	      0.00000000
      3.63500000	    -25.97847043	      5.28009984	      6.02262275	     -0.33738962	      0.82289321	     -0.98332322	     31.93858584	     -9.45472489	     -4.58391662	     89.37014707	      1.55980332	     -3.78242187	      0.00000000	      0.00000000	     69.84830442	      7.69905367	     -5.77526885	     75.58326504	      1.31917683	     23.98678769	      0.00000000	      0.00000000	      3.77061271	    -11.01803645	     -8.37802010	     89.95417105	     -2.29262049	     29.98653480	     54.41762307	     84.42212357	      0.00000000	      0.00000000	     89.96588577	    -16.40709801	     31.27898798	     62.19185083	     81.10858667	      0.00000000	      0.00000000
      3.64000000	    -25.99930931	      5.31822716	      6.02869187	     -0.33735439	      0.82255599	     -0.98346336	     31.96098973	     -9.46516527	     -4.61605975	     89.41964065	      1.56066715	     -3.78282463	      0.00000000	      0.00000000	     69.89575162	      7.76222085	     -5.76329147	     75.63440900	      1.32006946	     24.03518889	      0.00000000	      0.00000000	      3.79455184	    -11.03187827	     -8.40647685	     89.95415744	     -2.24438503	     29.98711160	     54.30115411	     84.43212592	      0.00000000	      0.00000000	     89.96585651	    -16.43749072	     31.30060580	     62.24155535	     80.43865171	      0.00000000	      0.00000000
      3.64500000	    -25.98290963	      5.42389027	      5.96247320	     -0.33729479	      0.82227222	     -0.98349581	     31.95844919	     -9.48600866	     -4.54032030	     89.50728206	      1.56219678	     -3.78145966	      0.00000000	      0.00000000	     69.89658926	      7.79056414	     -5.82960780	     75.68146658	      1.32089077	     24.09015087	      0.00000000	      0.00000000	      3.78194199	    -11.11836129	     -8.36725471	     89.95424269	     -2.23720642	     29.97281468	     54.28956691	     84.57256348	      0.00000000	      0.00000000	     89.96583757	    -16.43044175	     31.26116988	     62.27817277	     80.38949603	      0.00000000	      0.00000000
      3.65000000	    -25.93982433	      5.45801653	      5.92966896	     -0.33724757	      0.82198836	     -0.98348931	     31.91955889	     -9.46038268	     -4.56280728	     89.55384012	      1.56300937	     -3.83817644	      0.00000000	      0.00000000	     69.88380204	      7.78315915	     -5.86196952	     75.75678523	      1.32220533	     24.15292531	      0.00000000	      0.00000000	      3.73011471	    -11.12509228	     -8.35020012	     89.95424845	     -2.25117742	     29.94191428	     54.32728931	     84.42169369	      0.00000000	      0.00000000	     89.96586188	    -16.42169655	     31.27381284	     62.34723156	     79.98089654	      0.00000000	      0.00000000
      3.65500000	    -25.92160028	      5.54866524	      5.92638649	     -0.33720158	      0.82167264	     -0.98362722	     31.88551989	     -9.52310817	     -4.57888679	     89.64551417	      1.56460938	     -3.72217947	      0.00000000	      0.00000000	     69.87812733	      7.86204182	     -5.90354331	     75.79921121	      1.32294581	     24.19985697	      0.00000000	      0.00000000	      3.71134014	    -11.19246960	     -8.36430172	     89.95439597	     -2.26660994	     29.97816902	     54.36912430	     84.31820070	      0.00000000	      0.00000000	     89.96581970	    -16.41277444	     31.17848573	     62.29687267	     81.24591014	      0.00000000	      0.00000000
      3.66000000	    -25.94305358	      5.54263781	      5.92233326	     -0.33715557	      0.82121144	     -0.98370351	     31.88054880	     -9.47726609	     -4.63249464	     89.69870973	      1.56553782	     -3.55015831	      0.00000000	      0.00000000	     69.96564240	      7.86771009	     -5.88807675	     75.92334842	      1.32511241	     24.09784636	      0.00000000	      0.00000000	      3.75928756	    -11.16282806	     -8.36590596	     89.95444075	     -2.25415872	     30.19194111	     54.35180511	     78.92735104	      0.00000000	      0.00000000	     89.96594170	    -16.38268139	     31.38734789	     62.31242520	     76.46489007	      0.00000000	      0.00000000
      3.66500000	    -25.95115729	      5.61138743	      5.89966935	     -0.33718358	      0.82076770	     -0.98376933	     31.92219367	     -9.49531940	     -4.61888526	     89.80314134	      1.56736049	     -3.74426326	      0.00000000	      0.00000000	     70.00487421	      7.92746420	     -5.90267409	     75.97055297	      1.32593628	     24.23075334	      0.00000000	      0.00000000	      3.75033758	    -11.20731374	     -8.35133216	     89.95455569	     -2.29740865	     29.93945738	     54.43897653	     84.58857561	      0.00000000	      0.00000000	     89.96583967	    -16.35396064	     31.14259153	     62.27672451	     79.90683265	      0.00000000	      0.00000000
      3.67000000	    -25.98208108	      5.63718642	      5.87333451	     -0.33708057	      0.82043300	     -0.98387247	     31.93029048	     -9.51396018	     -4.69571294	     89.84763806	      1.56813711	     -3.69379827	      0.00000000	      0.00000000	     70.04186398	      7.95188421	     -5.90325688	     75.98800945	      1.32624096	     24.33859113	      0.00000000	      0.00000000	      3.80840639	    -11.19759132	     -8.34909766	     89.95449260	     -2.28184962	     30.24411617	     54.48401517	     80.44685533	      0.00000000	      0.00000000	     89.96594730	    -16.40599709	     31.30012475	     62.32969986	     76.47879787	      0.00000000	      0.00000000
      3.67500000	    -25.94890577	      5.55789665	      5.79890810	     -0.33699470	      0.82001371	     -0.98377183	     31.90165081	     -9.32321751	     -4.69841880	     89.87769457	      1.56866169	     -3.77324401	      0.00000000	      0.00000000	     70.08200453	      7.82760033	     -5.88253434	     76.16307599	      1.32929644	     24.41535226	      0.00000000	      0.00000000	      3.79256877	    -11.09776753	     -8.32017705	     89.95468035	     -2.31058892	     29.97506471	     54.50770582	     84.64816438	      0.00000000	      0.00000000	     89.96578674	    -16.39465088	     31.16230135	     62.31343268	     79.72195591	      0.00000000	      0.00000000
      3.68000000	    -25.94036261	      5.61087678	      5.77441786	     -0.33692091	      0.81967336	     -0.98382191	     31.88289578	     -9.34487887	     -4.72937018	     89.97299192	      1.57032495	     -3.72226881	      0.00000000	      0.00000000	     70.10426307	      7.85550009	     -5.91107228	     76.23789020	      1.33060220	     24.45626114	      0.00000000	      0.00000000	      3.78875930	    -11.13386201	     -8.27410326	     89.95465839	     -2.34302403	     29.94645789	     54.46560916	     84.52322807	      0.00000000	      0.00000000	     89.96586198	    -16.34789867	     31.11098946	     62.39621198	     80.01950239	      0.00000000	      0.00000000
